<?xml version="1.0" encoding="UTF-8" standalone="no"?>
<!-- Created with Inkscape (http://www.inkscape.org/) -->

<svg
   xmlns:dc="http://purl.org/dc/elements/1.1/"
   xmlns:cc="http://creativecommons.org/ns#"
   xmlns:rdf="http://www.w3.org/1999/02/22-rdf-syntax-ns#"
   xmlns:svg="http://www.w3.org/2000/svg"
   xmlns="http://www.w3.org/2000/svg"
   xmlns:sodipodi="http://sodipodi.sourceforge.net/DTD/sodipodi-0.dtd"
   xmlns:inkscape="http://www.inkscape.org/namespaces/inkscape"
   id="svg2"
   version="1.1"
   inkscape:version="0.48.2 r9819"
   sodipodi:docname="header2.svg"
   viewBox="0 0 600 120">
  <sodipodi:namedview
     pagecolor="#ffffff"
     bordercolor="#666666"
     borderopacity="1"
     objecttolerance="10"
     gridtolerance="10"
     guidetolerance="10"
     inkscape:pageopacity="0"
     inkscape:pageshadow="2"
     inkscape:window-width="1182"
     inkscape:window-height="701"
     id="namedview17"
     showgrid="false"
     inkscape:zoom="1.1527083"
     inkscape:cx="300"
     inkscape:cy="100"
     inkscape:window-x="0"
     inkscape:window-y="0"
     inkscape:window-maximized="0"
     inkscape:current-layer="svg2" />
  <defs
     id="defs4">
    <filter
       id="filter3038"
       color-interpolation-filters="sRGB">
      <feGaussianBlur
         id="feGaussianBlur3040"
         result="result0"
         stdDeviation="2"
         in="SourceAlpha" />
      <feComposite
         id="feComposite3042"
         k4="0"
         in2="result0"
         k3="10"
         k2="1"
         k1="0"
         result="result3"
         in="SourceGraphic"
         operator="arithmetic" />
      <feComposite
         id="feComposite3044"
         operator="in"
         result="result4"
         in2="result3"
         in="result3" />
    </filter>
    <linearGradient
       id="linearGradient3824"
       y2="383.79001"
       gradientUnits="userSpaceOnUse"
       x2="546.40997"
       gradientTransform="matrix(0.81821785,0,0,0.74745305,55.166462,312.27451)"
       y1="383.79001"
       x1="48.338001">
      <stop
         id="stop3816"
         stop-color="#b3a89b"
         offset="0" />
      <stop
         id="stop3818"
         stop-color="#b3a89b"
         stop-opacity="0"
         offset="1" />
    </linearGradient>
  </defs>
  <metadata
     id="metadata7">
    <rdf:RDF>
      <cc:Work
         rdf:about="">
        <dc:format>image/svg+xml</dc:format>
        <dc:type
           rdf:resource="http://purl.org/dc/dcmitype/StillImage" />
        <dc:title></dc:title>
      </cc:Work>
    </rdf:RDF>
  </metadata>
  <g
     id="layer1"
     transform="translate(7.8076993,-888.98604)">
    <g
       transform="matrix(1.2221684,0,0,1.3378767,-67.422708,434.57737)"
       style="font-size:50%;font-style:normal;font-variant:normal;font-weight:bold;font-stretch:normal;line-height:125%;letter-spacing:0px;word-spacing:0px;fill:#d40000;stroke-width:3;stroke-linejoin:round;stroke-miterlimit:4;stroke-opacity:0.70388345;filter:url(#filter3038);font-family:Arial"
       id="flowRoot3004">
      <path
         d="m 121.28125,389.85589 8.96875,2.84375 c -1.37504,5.00001 -3.66671,8.71876 -6.875,11.15625 -3.18753,2.41667 -7.23961,3.625 -12.15625,3.625 -6.08335,0 -11.08335,-2.07291 -15,-6.21875 -3.916672,-4.16666 -5.875003,-9.85415 -5.875,-17.0625 -3e-6,-7.62497 1.968745,-13.54163 5.90625,-17.75 3.93749,-4.22912 9.11457,-6.3437 15.53125,-6.34375 5.60414,5e-5 10.15622,1.6563 13.65625,4.96875 2.08329,1.95837 3.64579,4.77087 4.6875,8.4375 l -9.15625,2.1875 c -0.5417,-2.37496 -1.67712,-4.24996 -3.40625,-5.625 -1.70836,-1.37496 -3.79169,-2.06246 -6.25,-2.0625 -3.39585,4e-5 -6.15627,1.21879 -8.28125,3.65625 -2.10418,2.43753 -3.156263,6.38545 -3.15625,11.84375 -1.3e-5,5.79169 1.04165,9.91668 3.125,12.375 2.08332,2.45834 4.79165,3.68751 8.125,3.6875 2.45831,1e-5 4.57289,-0.78124 6.34375,-2.34375 1.7708,-1.56249 3.04163,-4.02082 3.8125,-7.375"
         style="font-size:50%;fill:#d40000;stroke:#b3a89b"
         id="path3052"
         inkscape:connector-curvature="0" />
      <path
         d="m 136.125,389.63714 c 0,-2.91664 0.71875,-5.73956 2.15625,-8.46875 1.43749,-2.72914 3.46874,-4.81247 6.09375,-6.25 2.64582,-1.43747 5.59373,-2.15621 8.84375,-2.15625 5.02081,4e-5 9.13539,1.63545 12.34375,4.90625 3.2083,3.25003 4.81246,7.36461 4.8125,12.34375 -4e-5,5.02085 -1.62504,9.18751 -4.875,12.5 -3.2292,3.29167 -7.30211,4.9375 -12.21875,4.9375 -3.04168,0 -5.94793,-0.6875 -8.71875,-2.0625 -2.75001,-1.375 -4.84376,-3.38541 -6.28125,-6.03125 -1.4375,-2.66665 -2.15625,-5.90624 -2.15625,-9.71875 m 9,0.46875 c -1e-5,3.29168 0.78124,5.81251 2.34375,7.5625 1.56248,1.75001 3.48957,2.62501 5.78125,2.625 2.29164,1e-5 4.20831,-0.87499 5.75,-2.625 1.56247,-1.74999 2.34372,-4.29165 2.34375,-7.625 -3e-5,-3.24998 -0.78128,-5.74998 -2.34375,-7.5 -1.54169,-1.74997 -3.45836,-2.62497 -5.75,-2.625 -2.29168,3e-5 -4.21877,0.87503 -5.78125,2.625 -1.56251,1.75002 -2.34376,4.27085 -2.34375,7.5625"
         style="font-size:50%;fill:#d40000;stroke:#b3a89b"
         id="path3054"
         inkscape:connector-curvature="0" />
      <path
         d="m 207.46875,406.69964 -8.78125,0 0,-16.9375 c -3e-5,-3.58331 -0.18753,-5.89581 -0.5625,-6.9375 -0.37503,-1.06247 -0.98961,-1.88539 -1.84375,-2.46875 -0.83336,-0.5833 -1.84377,-0.87497 -3.03125,-0.875 -1.52085,3e-5 -2.88543,0.4167 -4.09375,1.25 -1.20835,0.83336 -2.04168,1.93753 -2.5,3.3125 -0.43751,1.37502 -0.65626,3.91669 -0.65625,7.625 l 0,15.03125 -8.78125,0 0,-33.1875 8.15625,0 0,4.875 c 2.89582,-3.74997 6.54165,-5.62496 10.9375,-5.625 1.93747,4e-5 3.70831,0.3542 5.3125,1.0625 1.60414,0.68753 2.81247,1.57295 3.625,2.65625 0.8333,1.08336 1.40622,2.31253 1.71875,3.6875 0.3333,1.37503 0.49997,3.34377 0.5,5.90625 l 0,20.625"
         style="font-size:50%;fill:#d40000;stroke:#b3a89b"
         id="path3056"
         inkscape:connector-curvature="0" />
      <path
         d="m 246.59375,406.69964 -8.78125,0 0,-16.9375 c -3e-5,-3.58331 -0.18753,-5.89581 -0.5625,-6.9375 -0.37503,-1.06247 -0.98961,-1.88539 -1.84375,-2.46875 -0.83336,-0.5833 -1.84377,-0.87497 -3.03125,-0.875 -1.52085,3e-5 -2.88543,0.4167 -4.09375,1.25 -1.20835,0.83336 -2.04168,1.93753 -2.5,3.3125 -0.43751,1.37502 -0.65626,3.91669 -0.65625,7.625 l 0,15.03125 -8.78125,0 0,-33.1875 8.15625,0 0,4.875 c 2.89582,-3.74997 6.54165,-5.62496 10.9375,-5.625 1.93747,4e-5 3.70831,0.3542 5.3125,1.0625 1.60414,0.68753 2.81247,1.57295 3.625,2.65625 0.8333,1.08336 1.40622,2.31253 1.71875,3.6875 0.3333,1.37503 0.49997,3.34377 0.5,5.90625 l 0,20.625"
         style="font-size:50%;fill:#d40000;stroke:#b3a89b"
         id="path3058"
         inkscape:connector-curvature="0" />
      <path
         d="m 274.75,396.13714 8.75,1.46875 c -1.12503,3.20834 -2.90628,5.65626 -5.34375,7.34375 -2.41669,1.66667 -5.44794,2.5 -9.09375,2.5 -5.77085,0 -10.04167,-1.88541 -12.8125,-5.65625 -2.1875,-3.02082 -3.28125,-6.83332 -3.28125,-11.4375 0,-5.49998 1.4375,-9.80206 4.3125,-12.90625 2.87499,-3.12497 6.5104,-4.68746 10.90625,-4.6875 4.93748,4e-5 8.83331,1.63545 11.6875,4.90625 2.85413,3.25003 4.21872,8.23961 4.09375,14.96875 l -22,0 c 0.0625,2.60418 0.77082,4.63543 2.125,6.09375 1.35415,1.43751 3.04165,2.15626 5.0625,2.15625 1.37498,1e-5 2.53123,-0.37499 3.46875,-1.125 0.93748,-0.74999 1.64581,-1.95832 2.125,-3.625 m 0.5,-8.875 c -0.0625,-2.54164 -0.71877,-4.46872 -1.96875,-5.78125 -1.25002,-1.33331 -2.77085,-1.99997 -4.5625,-2 -1.91668,3e-5 -3.50001,0.69794 -4.75,2.09375 -1.25001,1.39586 -1.86459,3.29169 -1.84375,5.6875 l 13.125,0"
         style="font-size:50%;fill:#d40000;stroke:#b3a89b"
         id="path3060"
         inkscape:connector-curvature="0" />
      <path
         d="m 320.09375,383.32464 -8.65625,1.5625 c -0.29169,-1.72914 -0.95836,-3.03122 -2,-3.90625 -1.02086,-0.87497 -2.35419,-1.31247 -4,-1.3125 -2.18752,3e-5 -3.93751,0.76044 -5.25,2.28125 -1.29168,1.50002 -1.93751,4.02086 -1.9375,7.5625 -10e-6,3.93751 0.65624,6.71876 1.96875,8.34375 1.33332,1.62501 3.11457,2.43751 5.34375,2.4375 1.66665,1e-5 3.03123,-0.46874 4.09375,-1.40625 1.06248,-0.95832 1.81248,-2.59374 2.25,-4.90625 l 8.625,1.46875 c -0.89587,3.95834 -2.61461,6.94792 -5.15625,8.96875 -2.54169,2.02084 -5.94794,3.03125 -10.21875,3.03125 -4.85418,0 -8.72918,-1.53125 -11.625,-4.59375 -2.875,-3.06249 -4.3125,-7.30207 -4.3125,-12.71875 0,-5.47914 1.44791,-9.73956 4.34375,-12.78125 2.89582,-3.06247 6.81249,-4.59371 11.75,-4.59375 4.04164,4e-5 7.24997,0.87503 9.625,2.625 2.3958,1.7292 4.11455,4.37503 5.15625,7.9375"
         style="font-size:50%;fill:#d40000;stroke:#b3a89b"
         id="path3062"
         inkscape:connector-curvature="0" />
      <path
         d="m 342,373.51214 0,7 -6,0 0,13.375 c -10e-6,2.70835 0.0521,4.29168 0.15625,4.75 0.12499,0.43751 0.3854,0.80209 0.78125,1.09375 0.41665,0.29168 0.91665,0.43751 1.5,0.4375 0.81248,1e-5 1.98957,-0.28124 3.53125,-0.84375 l 0.75,6.8125 c -2.04169,0.875 -4.35418,1.3125 -6.9375,1.3125 -1.58335,0 -3.01043,-0.26042 -4.28125,-0.78125 -1.27084,-0.54166 -2.20834,-1.22916 -2.8125,-2.0625 -0.58334,-0.85416 -0.98959,-1.99999 -1.21875,-3.4375 -0.18751,-1.02083 -0.28125,-3.08332 -0.28125,-6.1875 l 0,-14.46875 -4.03125,0 0,-7 4.03125,0 0,-6.59375 8.8125,-5.125 0,11.71875 6,0"
         style="font-size:50%;fill:#d40000;stroke:#b3a89b"
         id="path3064"
         inkscape:connector-curvature="0" />
      <path
         d="m 366.03125,406.69964 0,-45.8125 31.40625,0 0,7.75 -22.15625,0 0,10.84375 19.125,0 0,7.75 -19.125,0 0,19.46875 -9.25,0"
         style="font-size:50%;fill:#d40000;stroke:#b3a89b"
         id="path3066"
         inkscape:connector-curvature="0" />
      <path
         d="m 403,389.63714 c 0,-2.91664 0.71875,-5.73956 2.15625,-8.46875 1.43749,-2.72914 3.46874,-4.81247 6.09375,-6.25 2.64582,-1.43747 5.59373,-2.15621 8.84375,-2.15625 5.02081,4e-5 9.13539,1.63545 12.34375,4.90625 3.2083,3.25003 4.81246,7.36461 4.8125,12.34375 -4e-5,5.02085 -1.62504,9.18751 -4.875,12.5 -3.2292,3.29167 -7.30211,4.9375 -12.21875,4.9375 -3.04168,0 -5.94793,-0.6875 -8.71875,-2.0625 -2.75001,-1.375 -4.84376,-3.38541 -6.28125,-6.03125 C 403.71875,396.68924 403,393.44965 403,389.63714 m 9,0.46875 c -10e-6,3.29168 0.78124,5.81251 2.34375,7.5625 1.56248,1.75001 3.48957,2.62501 5.78125,2.625 2.29164,1e-5 4.20831,-0.87499 5.75,-2.625 1.56247,-1.74999 2.34372,-4.29165 2.34375,-7.625 -3e-5,-3.24998 -0.78128,-5.74998 -2.34375,-7.5 -1.54169,-1.74997 -3.45836,-2.62497 -5.75,-2.625 -2.29168,3e-5 -4.21877,0.87503 -5.78125,2.625 -1.56251,1.75002 -2.34376,4.27085 -2.34375,7.5625"
         style="font-size:64px;fill:#d40000;stroke:#b3a89b"
         id="path3068"
         inkscape:connector-curvature="0" />
      <path
         d="m 466,406.69964 0,-4.96875 c -1.20836,1.77084 -2.80211,3.16667 -4.78125,4.1875 -1.95835,1.02083 -4.03127,1.53125 -6.21875,1.53125 -2.22918,0 -4.22918,-0.48958 -6,-1.46875 -1.77084,-0.97916 -3.05209,-2.35416 -3.84375,-4.125 -0.79167,-1.77082 -1.1875,-4.21874 -1.1875,-7.34375 l 0,-21 8.78125,0 0,15.25 c -10e-6,4.66668 0.15624,7.53126 0.46875,8.59375 0.33332,1.04168 0.92707,1.87501 1.78125,2.5 0.85415,0.60417 1.93748,0.90626 3.25,0.90625 1.49998,1e-5 2.84373,-0.40624 4.03125,-1.21875 1.18748,-0.83332 1.99998,-1.85416 2.4375,-3.0625 0.43747,-1.22915 0.65622,-4.21873 0.65625,-8.96875 l 0,-14 8.78125,0 0,33.1875 -8.15625,0"
         style="font-size:50%;fill:#d40000;stroke:#b3a89b"
         id="path3070"
         inkscape:connector-curvature="0" />
      <path
         d="m 491.6875,406.69964 -8.78125,0 0,-33.1875 8.15625,0 0,4.71875 c 1.39582,-2.22913 2.64582,-3.69788 3.75,-4.40625 1.12498,-0.7083 2.39581,-1.06246 3.8125,-1.0625 1.99998,4e-5 3.92706,0.55212 5.78125,1.65625 l -2.71875,7.65625 c -1.47919,-0.95831 -2.85419,-1.43747 -4.125,-1.4375 -1.22918,3e-5 -2.27085,0.34378 -3.125,1.03125 -0.85418,0.66669 -1.53126,1.88544 -2.03125,3.65625 -0.47918,1.77085 -0.71876,5.47918 -0.71875,11.125 l 0,10.25"
         style="font-size:50%;fill:#d40000;stroke:#b3a89b"
         id="path3072"
         inkscape:connector-curvature="0" />
    </g>
  </g>
</svg>
